<svg width="194" height="155" viewBox="0 0 194 155" fill="none" xmlns="http://www.w3.org/2000/svg">
<g clip-path="url(#clip0_308_285)">
<path d="M13.2158 100.849C6.10462 85.8838 12.4713 67.9877 27.4361 60.8764L128.448 12.8759C143.413 5.76471 161.31 12.1313 168.421 27.0962L193.945 80.809L65.8362 141.686C50.8714 148.797 32.9751 142.43 25.8639 127.465L13.2158 100.849Z" fill="white"/>
<path d="M51.9098 94.3692L46.1198 82.1846L51.4029 79.6741C52.331 79.2331 53.1698 78.9876 53.9192 78.9378C54.6725 78.8862 55.3182 79.012 55.8562 79.3155C56.3982 79.6171 56.8162 80.0772 57.1102 80.696C57.3232 81.1442 57.4182 81.5998 57.3952 82.0629C57.3761 82.5242 57.2494 82.9636 57.0152 83.3812C56.779 83.7949 56.4476 84.1614 56.0208 84.4809L56.0773 84.5999C56.6103 84.3709 57.1494 84.2776 57.6946 84.32C58.238 84.3584 58.7383 84.5314 59.1957 84.8392C59.6513 85.143 60.0157 85.5824 60.289 86.1575C60.6056 86.8239 60.7129 87.4998 60.6107 88.1852C60.5126 88.8688 60.2149 89.511 59.7176 90.1119C59.2204 90.7129 58.5296 91.2235 57.6451 91.6438L51.9098 94.3692ZM53.9624 90.1557L55.5093 89.4206C56.0646 89.1568 56.432 88.8557 56.6117 88.5175C56.7894 88.1754 56.7812 87.8001 56.5871 87.3915C56.4514 87.106 56.271 86.8951 56.0459 86.759C55.8207 86.6229 55.5627 86.5607 55.2717 86.5726C54.9848 86.5825 54.6727 86.6676 54.3356 86.8278L52.7411 87.5855L53.9624 90.1557ZM51.7686 85.5389L53.125 84.8943C53.4146 84.7567 53.6487 84.5895 53.8275 84.3928C54.0063 84.196 54.1166 83.9831 54.1585 83.7541C54.2025 83.5193 54.1651 83.2769 54.0464 83.0271C53.8673 82.6503 53.5958 82.4268 53.2319 82.3566C52.866 82.2825 52.4769 82.3435 52.0644 82.5395L50.6603 83.2067L51.7686 85.5389ZM67.6063 87.1144C66.6306 87.5781 65.7012 87.7913 64.818 87.7539C63.9369 87.7107 63.1392 87.4286 62.4248 86.9075C61.7125 86.3805 61.1227 85.6252 60.6552 84.6416C60.2067 83.6976 60.005 82.7821 60.0503 81.8952C60.0956 81.0082 60.372 80.2035 60.8795 79.481C61.387 78.7585 62.1127 78.173 63.0567 77.7244C63.7469 77.3964 64.4224 77.2067 65.0835 77.1551C65.7445 77.1035 66.3704 77.1878 66.9612 77.4078C67.55 77.6239 68.0892 77.9706 68.5785 78.4479C69.0679 78.9252 69.485 79.5268 69.8299 80.2526L70.1918 81.0142L62.0291 84.893L61.1697 83.0844L66.31 80.6417C66.1816 80.3818 66.0049 80.1838 65.7798 80.0477C65.5567 79.9057 65.3097 79.8311 65.0388 79.8237C64.77 79.8104 64.4987 79.8688 64.225 79.9989C63.9593 80.1251 63.7427 80.2986 63.5752 80.5191C63.4059 80.7357 63.3009 80.9752 63.2603 81.2376C63.2237 81.4982 63.2645 81.7632 63.3829 82.0327L64.3102 83.9841C64.4496 84.2776 64.6355 84.5102 64.8678 84.6818C65.1001 84.8534 65.3623 84.95 65.6546 84.9716C65.9468 84.9932 66.2555 84.9267 66.5808 84.7721C66.8069 84.6647 66.998 84.5349 67.1543 84.3829C67.3145 84.229 67.4338 84.0605 67.5121 83.8774C67.5885 83.6904 67.618 83.4965 67.6004 83.2958L70.5989 81.8709C70.7973 82.5545 70.8154 83.2217 70.6531 83.8726C70.4889 84.5195 70.1507 85.1226 69.6386 85.682C69.1286 86.2355 68.4512 86.713 67.6063 87.1144ZM78.7654 74.052L75.7431 75.4882C75.6386 75.3093 75.4969 75.1798 75.3178 75.0996C75.1387 75.0194 74.9409 74.987 74.7245 75.0023C74.5102 75.0117 74.294 75.0683 74.0759 75.1719C73.7943 75.3058 73.5768 75.4723 73.4235 75.6715C73.2703 75.8708 73.2408 76.0647 73.3353 76.2532C73.3954 76.3899 73.5123 76.4875 73.6859 76.546C73.8635 76.6026 74.1419 76.5797 74.5211 76.4773L76.5357 75.9284C77.5528 75.6541 78.3855 75.6109 79.0339 75.7987C79.6844 75.9807 80.1718 76.4079 80.4962 77.0803C80.8013 77.7326 80.8755 78.3902 80.7188 79.0529C80.5642 79.7098 80.218 80.3265 79.68 80.9031C79.1441 81.4738 78.4537 81.9598 77.6089 82.3613C76.2127 83.0247 74.9843 83.2584 73.9236 83.0623C72.8669 82.8644 72.0705 82.319 71.5345 81.4263L74.7948 79.877C74.976 80.1458 75.2253 80.3021 75.5426 80.3458C75.862 80.3836 76.2082 80.3139 76.581 80.1368C76.8824 79.9935 77.1058 79.8242 77.2512 79.6287C77.4005 79.4313 77.4319 79.2365 77.3454 79.0442C77.2585 78.8716 77.1053 78.7742 76.8857 78.7522C76.6701 78.7282 76.3688 78.7693 75.9816 78.8755L74.2277 79.3589C73.2183 79.6392 72.3732 79.6615 71.6924 79.4259C71.0116 79.1903 70.5026 78.7126 70.1654 77.9928C69.8599 77.3601 69.7711 76.7435 69.899 76.143C70.029 75.5367 70.3547 74.9687 70.876 74.439C71.3994 73.9034 72.0955 73.4292 72.9641 73.0165C74.2849 72.3888 75.4561 72.1678 76.4777 72.3532C77.5033 72.5368 78.2659 73.1031 78.7654 74.052ZM84.2979 67.7766L85.4287 70.1564L79.4079 73.0174L78.277 70.6377L84.2979 67.7766ZM78.4027 67.8941L81.6868 66.3335L85.6731 74.7223C85.7334 74.8492 85.8061 74.9459 85.8912 75.0125C85.9744 75.075 86.072 75.1065 86.184 75.1067C86.294 75.103 86.4205 75.0673 86.5633 74.9994C86.6624 74.9523 86.7718 74.8857 86.8914 74.7998C87.0149 74.7119 87.1046 74.6449 87.1606 74.5989L88.7335 76.6811C88.6074 76.7945 88.4227 76.9479 88.1792 77.1414C87.9396 77.3331 87.6381 77.5274 87.2747 77.7244C86.54 78.1221 85.8706 78.3454 85.2666 78.3942C84.6607 78.439 84.128 78.3105 83.6685 78.0086C83.209 77.7067 82.8315 77.2346 82.536 76.5923L78.4027 67.8941ZM97.9588 72.4869L93.2706 74.7147L87.4805 62.5302L92.1211 60.325C93.3745 59.7294 94.5732 59.4588 95.7173 59.5132C96.8635 59.5617 97.9012 59.9243 98.8305 60.6009C99.7618 61.2717 100.529 62.2417 101.132 63.511C101.735 64.7802 102.006 65.9887 101.943 67.1366C101.879 68.2804 101.509 69.3121 100.833 70.2316C100.154 71.1471 99.1963 71.8989 97.9588 72.4869ZM95.2441 70.3347L96.5054 69.7353C97.1082 69.4488 97.5757 69.1076 97.9077 68.7116C98.2437 68.3137 98.4097 67.8239 98.4057 67.2424C98.4056 66.659 98.2039 65.943 97.8005 65.0942C97.3972 64.2454 96.9674 63.6377 96.5112 63.271C96.0589 62.9025 95.5665 62.7257 95.0339 62.7405C94.5052 62.7535 93.9236 62.9108 93.289 63.2123L92.1229 63.7664L95.2441 70.3347ZM110.063 66.9391C109.088 67.4028 108.158 67.6159 107.275 67.5786C106.394 67.5354 105.596 67.2532 104.882 66.7321C104.169 66.2052 103.58 65.4499 103.112 64.4662C102.664 63.5223 102.462 62.6068 102.507 61.7198C102.553 60.8329 102.829 60.0282 103.336 59.3057C103.844 58.5832 104.57 57.9976 105.514 57.5491C106.204 57.2211 106.879 57.0314 107.54 56.9798C108.201 56.9282 108.827 57.0124 109.418 57.2325C110.007 57.4486 110.546 57.7953 111.035 58.2726C111.525 58.7499 111.942 59.3515 112.287 60.0773L112.649 60.8388L104.486 64.7177L103.627 62.9091L108.767 60.4664C108.639 60.2065 108.462 60.0085 108.237 59.8724C108.014 59.7304 107.767 59.6557 107.496 59.6483C107.227 59.6351 106.956 59.6935 106.682 59.8235C106.416 59.9498 106.2 60.1232 106.032 60.3438C105.863 60.5604 105.758 60.7999 105.717 61.0623C105.681 61.3228 105.721 61.5878 105.84 61.8574L106.767 63.8088C106.907 64.1023 107.092 64.3349 107.325 64.5065C107.557 64.6781 107.819 64.7747 108.112 64.7963C108.404 64.8178 108.713 64.7513 109.038 64.5968C109.264 64.4894 109.455 64.3596 109.611 64.2076C109.772 64.0536 109.891 63.8851 109.969 63.7021C110.046 63.515 110.075 63.3212 110.057 63.1205L113.056 61.6956C113.254 62.3792 113.272 63.0464 113.11 63.6973C112.946 64.3441 112.608 64.9473 112.096 65.5066C111.586 66.0602 110.908 66.5377 110.063 66.9391ZM118.413 62.9425C117.829 63.2195 117.269 63.3693 116.73 63.3919C116.193 63.4087 115.705 63.281 115.264 63.009C114.824 62.737 114.46 62.2975 114.171 61.6907C113.934 61.1909 113.816 60.724 113.819 60.29C113.82 59.8519 113.92 59.4473 114.118 59.0761C114.316 58.7049 114.589 58.3637 114.937 58.0525C115.289 57.7393 115.692 57.4528 116.147 57.1928C116.64 56.91 117.028 56.6673 117.311 56.4648C117.596 56.2564 117.783 56.0677 117.873 55.8986C117.961 55.7255 117.963 55.5517 117.881 55.3772L117.869 55.3534C117.756 55.1154 117.578 54.9763 117.335 54.9361C117.093 54.8959 116.829 54.9436 116.543 55.0793C116.23 55.2282 116.007 55.4192 115.874 55.6523C115.744 55.8795 115.726 56.1433 115.82 56.4438L112.798 57.88C112.574 57.3058 112.507 56.7103 112.598 56.0934C112.691 55.4706 112.974 54.8742 113.447 54.3042C113.918 53.7303 114.608 53.2275 115.516 52.7959C116.171 52.4849 116.794 52.2833 117.388 52.1911C117.979 52.0949 118.522 52.097 119.017 52.1972C119.51 52.2935 119.938 52.4789 120.302 52.7533C120.668 53.0219 120.952 53.3684 121.153 53.7928L124.128 60.0517L121.058 61.5105L120.447 60.2254L120.376 60.2593C120.355 60.6871 120.264 61.0683 120.102 61.4029C119.944 61.7357 119.721 62.0288 119.433 62.2823C119.149 62.5339 118.809 62.754 118.413 62.9425ZM118.5 60.3631C118.749 60.2444 118.959 60.0816 119.128 59.8749C119.301 59.6662 119.411 59.4317 119.457 59.1714C119.504 58.9111 119.461 58.6421 119.329 58.3644L118.967 57.6029C118.897 57.6801 118.82 57.7581 118.736 57.8369C118.656 57.9139 118.567 57.9926 118.469 58.0732C118.375 58.1518 118.272 58.2323 118.161 58.3145C118.053 58.3948 117.938 58.476 117.817 58.558C117.582 58.7183 117.405 58.8827 117.285 59.0512C117.168 59.2139 117.101 59.3795 117.084 59.5481C117.069 59.7108 117.099 59.8715 117.174 60.0302C117.295 60.284 117.477 60.4359 117.719 60.486C117.962 60.536 118.222 60.4951 118.5 60.3631ZM123.191 45.5609L128.981 57.7454L125.697 59.306L119.907 47.1215L123.191 45.5609ZM136.078 46.8173L133.056 48.2535C132.951 48.0746 132.81 47.945 132.631 47.8649C132.451 47.7847 132.254 47.7522 132.037 47.7675C131.823 47.777 131.607 47.8335 131.389 47.9372C131.107 48.071 130.89 48.2375 130.736 48.4368C130.583 48.636 130.554 48.8299 130.648 49.0184C130.708 49.1552 130.825 49.2528 130.999 49.3112C131.176 49.3678 131.455 49.3449 131.834 49.2425L133.849 48.6936C134.866 48.4194 135.698 48.3762 136.347 48.564C136.997 48.7459 137.485 49.1731 137.809 49.8455C138.114 50.4979 138.188 51.1554 138.032 51.8182C137.877 52.4751 137.531 53.0918 136.993 53.6683C136.457 54.239 135.767 54.7251 134.922 55.1265C133.526 55.79 132.297 56.0236 131.236 55.8276C130.18 55.6296 129.383 55.0843 128.847 54.1916L132.108 52.6423C132.289 52.9111 132.538 53.0673 132.855 53.111C133.175 53.1488 133.521 53.0792 133.894 52.902C134.195 52.7588 134.419 52.5894 134.564 52.3939C134.713 52.1966 134.745 52.0018 134.658 51.8095C134.571 51.6368 134.418 51.5395 134.199 51.5174C133.983 51.4935 133.682 51.5346 133.294 51.6407L131.541 52.1241C130.531 52.4044 129.686 52.4268 129.005 52.1912C128.324 51.9556 127.815 51.4779 127.478 50.7581C127.173 50.1254 127.084 49.5088 127.212 48.9083C127.342 48.302 127.668 47.7339 128.189 47.2042C128.712 46.6686 129.408 46.1945 130.277 45.7817C131.598 45.1541 132.769 44.933 133.791 45.1185C134.816 45.3021 135.579 45.8683 136.078 46.8173ZM53.491 103.039L56.7513 101.49L60.7206 109.843C61.0936 110.638 61.2251 111.432 61.1149 112.223C61.0068 113.008 60.6859 113.735 60.152 114.402C59.6201 115.063 58.9041 115.607 58.0037 116.035C57.2223 116.406 56.4443 116.611 55.6696 116.648C54.8931 116.682 54.1739 116.499 53.5121 116.098C52.8484 115.694 52.2962 115.023 51.8553 114.085L55.1632 112.513C55.3203 112.813 55.4943 113.046 55.6855 113.213C55.8805 113.378 56.0868 113.475 56.3043 113.503C56.5239 113.525 56.7546 113.478 56.9966 113.363C57.2425 113.246 57.4233 113.095 57.539 112.909C57.6586 112.72 57.7121 112.5 57.6995 112.249C57.685 111.993 57.6053 111.708 57.4603 111.393L53.491 103.039ZM68.1825 106.093L65.7398 100.953L69.0239 99.3923L73.3664 108.531L70.2489 110.012L69.4234 108.275L69.3282 108.32C69.4069 108.997 69.2766 109.618 68.9373 110.183C68.596 110.744 68.0843 111.187 67.4021 111.511C66.7635 111.814 66.1345 111.933 65.5151 111.868C64.8997 111.8 64.3366 111.572 63.8258 111.183C63.319 110.791 62.9053 110.264 62.5847 109.599L59.8141 103.769L63.0982 102.208L65.5409 107.348C65.7597 107.799 66.0434 108.099 66.392 108.249C66.7446 108.398 67.1271 108.374 67.5396 108.178C67.8133 108.048 68.0219 107.878 68.1656 107.669C68.3113 107.454 68.3869 107.214 68.3922 106.949C68.3996 106.678 68.3297 106.393 68.1825 106.093ZM80.4609 97.6039L77.4385 99.0401C77.3341 98.8613 77.1923 98.7317 77.0132 98.6515C76.8341 98.5713 76.6364 98.5389 76.42 98.5542C76.2057 98.5636 75.9895 98.6202 75.7713 98.7239C75.4897 98.8577 75.2723 99.0242 75.119 99.2235C74.9657 99.4227 74.9363 99.6166 75.0307 99.8051C75.0908 99.9418 75.2077 100.039 75.3814 100.098C75.559 100.155 75.8374 100.132 76.2166 100.029L78.2311 99.4803C79.2482 99.2061 80.081 99.1628 80.7293 99.3507C81.3798 99.5326 81.8672 99.9598 82.1916 100.632C82.4967 101.285 82.571 101.942 82.4143 102.605C82.2597 103.262 81.9134 103.878 81.3754 104.455C80.8395 105.026 80.1492 105.512 79.3043 105.913C77.9082 106.577 76.6798 106.81 75.6191 106.614C74.5623 106.416 73.7659 105.871 73.2299 104.978L76.4902 103.429C76.6714 103.698 76.9207 103.854 77.238 103.898C77.5575 103.936 77.9036 103.866 78.2764 103.689C78.5779 103.545 78.8013 103.376 78.9466 103.181C79.0959 102.983 79.1273 102.788 79.0408 102.596C78.9539 102.424 78.8007 102.326 78.5811 102.304C78.3655 102.28 78.0642 102.321 77.6771 102.427L75.9231 102.911C74.9137 103.191 74.0687 103.213 73.3878 102.978C72.707 102.742 72.198 102.265 71.8609 101.545C71.5553 100.912 71.4665 100.295 71.5945 99.695C71.7245 99.0886 72.0501 98.5206 72.5715 97.9909C73.0949 97.4553 73.7909 96.9812 74.6595 96.5684C75.9803 95.9408 77.1515 95.7197 78.1731 95.9052C79.1987 96.0887 79.9613 96.655 80.4609 97.6039ZM85.9933 91.3285L87.1242 93.7083L81.1033 96.5694L79.9724 94.1896L85.9933 91.3285ZM80.0981 91.446L83.3822 89.8855L87.3685 98.2742C87.4289 98.4011 87.5016 98.4979 87.5867 98.5644C87.6699 98.627 87.7674 98.6584 87.8794 98.6587C87.9895 98.655 88.1159 98.6192 88.2587 98.5513C88.3579 98.5042 88.4672 98.4377 88.5868 98.3517C88.7104 98.2638 88.8001 98.1968 88.856 98.1508L90.4289 100.233C90.3029 100.346 90.1181 100.5 89.8746 100.693C89.635 100.885 89.3336 101.079 88.9701 101.276C88.2354 101.674 87.566 101.897 86.962 101.946C86.3561 101.991 85.8234 101.862 85.3639 101.561C84.9045 101.259 84.527 100.787 84.2314 100.144L80.0981 91.446ZM94.966 98.2667L89.176 86.0821L97.7432 82.011L99.0098 84.6764L93.7505 87.1756L94.7456 89.2698L99.4814 87.0194L100.748 89.6847L96.0122 91.9352L98.2739 96.6948L94.966 98.2667ZM108.608 91.988C107.617 92.4592 106.675 92.6662 105.782 92.609C104.888 92.5479 104.084 92.2539 103.372 91.7269C102.658 91.196 102.078 90.4625 101.634 89.5265C101.189 88.5904 100.987 87.6798 101.028 86.7948C101.068 85.9058 101.347 85.0972 101.867 84.369C102.384 83.6369 103.139 83.0352 104.13 82.564C105.122 82.0929 106.065 81.8878 106.959 81.949C107.852 82.0061 108.655 82.3002 109.37 82.8311C110.082 83.3581 110.66 84.0896 111.105 85.0256C111.55 85.9617 111.753 86.8742 111.713 87.7632C111.672 88.6483 111.393 89.4569 110.875 90.189C110.356 90.9172 109.6 91.5168 108.608 91.988ZM107.479 89.5493C107.756 89.4174 107.952 89.2102 108.066 88.9276C108.18 88.6451 108.21 88.3049 108.157 87.907C108.104 87.5092 107.965 87.0723 107.738 86.5963C107.51 86.1164 107.26 85.7323 106.987 85.444C106.712 85.1517 106.429 84.9604 106.138 84.8701C105.847 84.7798 105.563 84.8006 105.285 84.9325C104.991 85.072 104.784 85.2849 104.662 85.5712C104.541 85.8575 104.506 86.1996 104.559 86.5974C104.61 86.9913 104.75 87.4282 104.978 87.9081C105.204 88.3841 105.455 88.7682 105.73 89.0605C106.005 89.3528 106.292 89.5422 106.59 89.6287C106.889 89.7153 107.185 89.6888 107.479 89.5493ZM114.598 88.9377L110.255 79.7993L113.444 78.284L114.27 80.0212L114.365 79.976C114.226 79.2543 114.267 78.6589 114.486 78.1899C114.71 77.7191 115.065 77.3677 115.553 77.1359C115.696 77.068 115.843 77.013 115.993 76.9709C116.145 76.9228 116.296 76.8876 116.446 76.865L117.777 79.6672C117.588 79.689 117.368 79.7425 117.117 79.8278C116.866 79.9132 116.655 79.9963 116.484 80.0774C116.163 80.2301 115.908 80.441 115.72 80.7103C115.534 80.9737 115.43 81.2712 115.408 81.6027C115.384 81.9302 115.454 82.2685 115.62 82.6176L117.882 87.3771L114.598 88.9377ZM118.862 71.9753L122.551 70.2225L127.283 74.0416L127.378 73.9963L127.406 67.9155L131.095 66.1626L130.59 76.6417L132.411 80.4732L129.126 82.0338L127.306 78.2023L118.862 71.9753ZM140.169 76.9906C139.177 77.4618 138.235 77.6688 137.343 77.6117C136.448 77.5505 135.645 77.2565 134.933 76.7295C134.218 76.1986 133.639 75.4651 133.194 74.5291C132.749 73.593 132.548 72.6825 132.589 71.7974C132.628 70.9084 132.908 70.0998 133.427 69.3716C133.945 68.6395 134.699 68.0379 135.691 67.5667C136.682 67.0955 137.625 66.8904 138.52 66.9516C139.412 67.0088 140.216 67.3028 140.93 67.8337C141.642 68.3607 142.221 69.0922 142.666 70.0282C143.11 70.9643 143.313 71.8768 143.274 72.7658C143.232 73.6509 142.953 74.4595 142.435 75.1916C141.916 75.9198 141.161 76.5194 140.169 76.9906ZM139.039 74.5519C139.317 74.42 139.513 74.2128 139.626 73.9302C139.74 73.6477 139.77 73.3075 139.718 72.9097C139.665 72.5118 139.525 72.0749 139.299 71.5989C139.071 71.119 138.82 70.7349 138.547 70.4466C138.272 70.1543 137.989 69.963 137.698 69.8727C137.407 69.7824 137.123 69.8032 136.845 69.9351C136.552 70.0746 136.344 70.2875 136.223 70.5738C136.101 70.8601 136.067 71.2022 136.12 71.6C136.171 71.9939 136.31 72.4308 136.538 72.9108C136.764 73.3867 137.015 73.7708 137.29 74.0631C137.565 74.3554 137.852 74.5448 138.151 74.6314C138.45 74.7179 138.746 74.6914 139.039 74.5519ZM150.184 67.1264L147.741 61.9861L151.026 60.4255L155.368 69.5639L152.251 71.0453L151.425 69.3081L151.33 69.3533C151.409 70.0306 151.278 70.6517 150.939 71.2165C150.598 71.7773 150.086 72.2198 149.404 72.544C148.765 72.8474 148.136 72.9664 147.517 72.901C146.901 72.8336 146.338 72.6053 145.828 72.216C145.321 71.8247 144.907 71.2969 144.586 70.6324L141.816 64.8019L145.1 63.2414L147.543 68.3817C147.761 68.832 148.045 69.1323 148.394 69.2827C148.746 69.4312 149.129 69.4074 149.541 69.2114C149.815 69.0814 150.024 68.9117 150.167 68.7024C150.313 68.4873 150.389 68.2472 150.394 67.9822C150.401 67.7112 150.331 67.426 150.184 67.1264Z" fill="#1D4ED8"/>
</g>
<defs>
<clipPath id="clip0_308_285">
<path d="M13.2158 100.849C6.10462 85.8838 12.4713 67.9877 27.4361 60.8764L128.448 12.8759C143.413 5.76471 161.31 12.1313 168.421 27.0962L193.945 80.809L65.8362 141.686C50.8714 148.797 32.9751 142.43 25.8639 127.465L13.2158 100.849Z" fill="white"/>
</clipPath>
</defs>
</svg>
