<svg width="419" height="419" viewBox="0 0 419 419" fill="none" xmlns="http://www.w3.org/2000/svg">
<g clip-path="url(#clip0_308_290)">
<path d="M144.821 304.799C144.821 304.799 193.394 327.61 242.597 311.599C291.801 295.588 317.623 248.568 317.623 248.568C317.623 248.568 313.733 213.095 277.191 161.559C257.918 134.387 122.704 174.983 120.795 204.853C117.525 255.564 144.821 304.799 144.821 304.799Z" fill="#424242"/>
<path d="M317.623 248.567L308.904 261.862C308.904 261.862 302.912 243.114 291.443 227.537C287.153 221.717 278.53 221.499 273.913 227.06L238.063 269.963C236.097 272.312 233.517 274.069 230.611 275.039C227.705 276.009 224.586 276.153 221.603 275.455C195.833 269.407 128.571 253.521 125.328 252.261C125.328 252.261 123.958 248.05 123.27 242.337L297.892 185.759L317.623 248.567Z" fill="#212121"/>
<path d="M54.7838 226.818L221.77 264.611C225.417 265.44 229.234 264.198 231.719 261.374L344.437 132.563C347.575 128.982 345.739 123.342 341.095 122.294L174.109 84.5001C170.462 83.6714 166.645 84.9135 164.16 87.7376L51.393 216.565C48.2799 220.138 50.115 225.777 54.7838 226.818Z" fill="#424242"/>
<path d="M224.614 256.936C224.639 256.928 224.696 256.936 224.72 256.928C225.114 256.8 225.476 256.573 225.749 256.239L344.508 124.4C344.508 124.4 345.663 125.522 345.742 128.193C345.796 130.871 344.92 132.028 344.425 132.598L231.658 261.425C230.427 262.833 228.856 263.862 227.132 264.423L227.033 264.455L224.589 256.944L224.614 256.936Z" fill="#9E9E9E"/>
<path d="M224.706 256.907C224.681 256.915 224.64 256.956 224.615 256.964C224.221 257.092 223.795 257.122 223.378 257.012L49.775 220.31C49.775 220.31 49.5016 221.897 51.0091 224.102C52.5412 226.3 53.9304 226.719 54.6663 226.888L221.653 264.682C223.476 265.096 225.352 265.003 227.076 264.442L227.174 264.41L224.73 256.899L224.706 256.907Z" fill="#616161"/>
<path d="M284.349 201.221L281.309 194.557C281.309 194.557 210.269 181.372 203.187 179.863C196.106 178.355 188.601 176.548 184.816 174.376C178.128 170.561 180.568 166.008 180.568 166.008C180.568 166.008 186.511 171.046 195.434 166.917C200.545 164.546 206.062 157.985 206.563 155.589C207.063 153.193 290.65 182.421 290.65 182.421L293.787 190.47L284.349 201.221Z" fill="#424242"/>
<path d="M180.577 166.034C189.962 172.948 199.614 165.449 199.614 165.449C199.614 165.449 239.214 170.728 239.686 167.824C240.157 164.92 205.628 159.326 205.628 159.326C205.628 159.326 205.307 152.731 204.293 150.201C204.293 150.201 268.856 166.829 292.653 171.749C305.123 174.336 309.207 179.271 311.779 187.258C312.917 190.755 316.562 202.123 318.716 208.912C319.125 210.168 320.052 211.173 321.268 211.649C323.11 212.367 324.77 213.485 326.128 214.922C327.486 216.36 328.508 218.08 329.12 219.96C330.346 223.728 329.794 227.639 327.945 230.828C326.95 232.54 328.127 235.153 328.573 236.942C329.416 240.371 330.159 241.818 332.548 244.472C334.888 247.06 337.154 249.754 339.058 252.675C340.524 254.921 341.793 257.314 343.053 259.681C351.457 275.547 358.637 293.092 371.426 306.033C371.667 306.274 371.856 306.561 371.985 306.876C372.113 307.192 372.178 307.53 372.174 307.87C372.171 308.211 372.1 308.547 371.966 308.86C371.832 309.173 371.637 309.456 371.392 309.693C370.903 310.179 370.242 310.451 369.553 310.451C368.864 310.45 368.203 310.177 367.715 309.691C361.056 302.953 356.094 294.818 351.525 286.637C354.196 294.51 356.842 302.472 359.917 311.003C360.511 312.662 361.732 315.996 360.446 317.231C355.614 321.881 352.825 313.311 352.825 313.311C352.825 313.311 355.259 321.043 347.453 323.584C339.646 326.124 336.572 318.6 336.572 318.6C336.572 318.6 338.305 325.852 334.179 326.814C332.505 327.195 330.042 326.907 328.057 318.212C326.08 309.541 318.152 278.732 315.855 268.913C312.685 255.32 314.462 246.054 313.826 241.087C313.57 239.209 312.993 237.354 311.213 236.654C309.403 235.948 307.769 234.857 306.424 233.455C305.079 232.054 304.055 230.377 303.424 228.54C302.792 226.703 302.568 224.751 302.768 222.819C302.967 220.887 303.585 219.022 304.578 217.352C304.932 216.76 305.142 216.094 305.192 215.406C305.243 214.718 305.132 214.028 304.868 213.391C302.325 207.165 298.795 198.074 297.679 196.067C292.723 187.032 287.41 186.854 281.604 185.584C275.79 184.29 194.729 175.209 189.727 173.814C180.459 171.193 180.577 166.034 180.577 166.034Z" fill="#E2A610"/>
<path d="M180.588 166.027C189.468 172.642 200.851 164.69 200.851 164.69C200.851 164.69 237.791 168.492 234.808 166.603C231.848 164.706 205.639 159.319 205.639 159.319C205.639 159.319 205.318 152.724 204.304 150.194C204.304 150.194 268.961 163.932 294.986 172.185C301.703 174.329 310.534 178.536 307.117 186.702C305.535 190.457 300.834 192.668 296.953 191.371C294.609 190.609 292.474 189.07 290.278 188.014C287.553 186.668 284.624 186.205 281.689 185.553C275.875 184.259 194.814 175.178 189.812 173.783C180.469 171.186 180.588 166.027 180.588 166.027Z" fill="#FFCA28"/>
<path d="M324.806 247.427C328.057 246.369 330.16 245.385 332.003 244.268C332.332 244.071 332.58 243.762 332.701 243.398C332.823 243.034 332.809 242.638 332.664 242.283L328.963 233.084C328.576 232.148 327.449 231.779 326.601 232.355C324.593 233.716 320.369 235.799 312.632 236.628C311.681 236.719 310.995 237.624 311.193 238.567L313.253 248.245C313.428 249.033 314.152 249.587 314.947 249.519C318.996 249.154 321.777 248.413 324.806 247.427Z" fill="#9E740B"/>
<path d="M144.826 304.789C144.826 304.789 133.062 283.453 126.933 258.677C125.899 254.492 127.265 250.154 133.866 263.828C137.643 271.668 148.046 295.435 157.151 309.439C149.396 306.951 144.826 304.789 144.826 304.789ZM183.127 143.547C181.513 144.699 180.312 146.615 180.445 148.614C180.631 151.277 182.984 153.235 185.284 154.611C189.785 157.313 195.365 159.146 200.308 157.347C201.942 156.761 203.539 155.642 204.124 154.008C204.542 152.865 204.403 151.603 204.1 150.421C201.795 141.83 190.157 138.537 183.127 143.547Z" fill="#616161"/>
</g>
<defs>
<clipPath id="clip0_308_290">
<rect width="331.484" height="331.484" fill="white" transform="matrix(-0.95092 0.309436 0.309436 0.95092 315.499 0.288086)"/>
</clipPath>
</defs>
</svg>
