<svg width="47" height="47" viewBox="0 0 47 47" fill="none" xmlns="http://www.w3.org/2000/svg">
<g clip-path="url(#clip0_13_152)">
<path d="M10.9728 30.1047C10.9728 30.1047 14.9938 35.309 21.2548 36.315C27.5158 37.3209 32.9615 33.6377 32.9615 33.6377C32.9615 33.6377 34.5213 29.5519 33.4189 21.8881C32.837 17.8472 15.8216 14.7115 13.9428 17.862C10.7499 23.2091 10.9728 30.1047 10.9728 30.1047Z" fill="#424242"/>
<path d="M32.9618 33.6378L31.2674 34.5999C31.2674 34.5999 31.6626 32.2204 31.2832 29.8803C31.1408 29.0056 30.2128 28.4997 29.3982 28.8478L23.0893 31.5212C22.7435 31.6674 22.3638 31.7147 21.9927 31.6579C21.6216 31.6011 21.2735 31.4424 20.9872 31.1995C18.5153 29.0986 12.0689 23.6043 11.7858 23.2856C11.7858 23.2856 11.8719 22.7497 12.1164 22.0882L34.3231 25.6852L32.9618 33.6378Z" fill="#212121"/>
<path d="M5.5137 16.5656L21.6094 30.0265C21.9608 30.3208 22.4465 30.3989 22.8754 30.2299L42.3715 22.4876C42.914 22.2726 43.0293 21.555 42.5815 21.1809L26.4857 7.72C26.1344 7.42567 25.6487 7.34763 25.2198 7.51658L5.71739 15.2578C5.17808 15.4734 5.06278 16.191 5.5137 16.5656Z" fill="#424242"/>
<path d="M22.3516 29.3484C22.3547 29.3489 22.3605 29.3531 22.3636 29.3536C22.4137 29.3616 22.4659 29.3572 22.5143 29.336L42.8385 21.6014C42.8385 21.6014 42.9017 21.7884 42.761 22.084C42.6171 22.3791 42.4569 22.4562 42.371 22.4907L22.8686 30.2319C22.6557 30.3166 22.4268 30.3409 22.2074 30.3057L22.1949 30.3037L22.3484 29.3479L22.3516 29.3484Z" fill="#9E9E9E"/>
<path d="M22.3641 29.3505C22.3609 29.35 22.3542 29.3521 22.351 29.3516C22.3009 29.3436 22.2528 29.323 22.2134 29.2877L5.33511 15.5757C5.33511 15.5757 5.21654 15.7334 5.25757 16.0583C5.30174 16.3836 5.42977 16.507 5.50056 16.5666L21.5963 30.0276C21.772 30.1747 21.9817 30.2695 22.2011 30.3047L22.2136 30.3068L22.3672 29.351L22.3641 29.3505Z" fill="#616161"/>
<path d="M31.9814 26.614L32.0227 25.7173C32.0227 25.7173 25.0133 20.3062 24.3254 19.7456C23.6376 19.185 22.9202 18.5683 22.629 18.1197C22.113 17.3296 22.6338 16.9697 22.6338 16.9697C22.6338 16.9697 23 17.8514 24.204 17.9002C24.894 17.9275 25.8626 17.5206 26.0512 17.2873C26.2398 17.054 33.72 24.9164 33.72 24.9164L33.6119 25.9695L31.9814 26.614Z" fill="#424242"/>
<path d="M22.6332 16.9728C23.27 18.2516 24.7418 17.9738 24.7418 17.9738C24.7418 17.9738 28.7649 20.7643 28.9787 20.474C29.1925 20.1836 25.7402 17.6424 25.7402 17.6424C25.7402 17.6424 26.074 16.9052 26.1049 16.5727C26.1049 16.5727 32.2153 21.9969 34.5351 23.8644C35.7503 24.844 35.9197 25.6106 35.7534 26.6254C35.6819 27.0703 35.4436 28.5139 35.2988 29.3747C35.2732 29.5345 35.3179 29.696 35.424 29.8159C35.5847 29.9973 35.7032 30.212 35.7709 30.4447C35.8386 30.6773 35.8538 30.9221 35.8154 31.1614C35.7384 31.6408 35.4594 32.0364 35.0794 32.2807C34.8751 32.4119 34.8574 32.7626 34.8059 32.9826C34.7061 33.4037 34.7062 33.603 34.8183 34.0261C34.9287 34.4392 35.0251 34.8597 35.0693 35.2847C35.1036 35.6117 35.1081 35.9435 35.1132 36.2722C35.1422 38.4724 34.9439 40.7871 35.6148 42.9136C35.6274 42.9534 35.6321 42.9953 35.6285 43.0369C35.6248 43.0784 35.6129 43.1189 35.5936 43.1558C35.5742 43.1928 35.5476 43.2255 35.5155 43.2522C35.4833 43.2788 35.4462 43.2987 35.4063 43.3109C35.3258 43.3365 35.2385 43.3292 35.1634 43.2906C35.0883 43.2521 35.0315 43.1853 35.0054 43.105C34.6561 41.9978 34.57 40.8331 34.5294 39.6854C34.3803 40.6933 34.2234 41.7097 34.0817 42.812C34.0537 43.0261 34.0004 43.4579 33.791 43.5207C33.004 43.7575 33.1792 42.667 33.1792 42.667C33.1792 42.667 33.0122 43.6463 32.0188 43.4867C31.0255 43.3271 31.111 42.3347 31.111 42.3347C31.111 42.3347 30.8944 43.2224 30.3907 43.0965C30.1869 43.0445 29.9344 42.8753 30.2042 41.8161C30.4736 40.76 31.3321 36.9569 31.6309 35.7577C32.0454 34.0981 32.7576 33.1871 32.966 32.6098C33.043 32.3907 33.0839 32.1562 32.929 31.9802C32.7711 31.802 32.654 31.5916 32.5856 31.3636C32.5173 31.1356 32.4995 30.8954 32.5334 30.6598C32.5672 30.4242 32.652 30.1988 32.7818 29.9992C32.9116 29.7997 33.0833 29.6308 33.285 29.5044C33.3567 29.4596 33.4169 29.3987 33.4608 29.3265C33.5048 29.2543 33.5313 29.1728 33.5382 29.0886C33.6091 28.2674 33.7326 27.0786 33.7231 26.7974C33.6881 25.5349 33.1186 25.2184 32.5565 24.7552C31.995 24.2888 23.6632 18.7648 23.1958 18.3329C22.3317 17.5287 22.6332 16.9728 22.6332 16.9728Z" fill="#E2A610"/>
<path d="M22.6332 16.9727C23.2315 18.1907 24.9176 17.9601 24.9176 17.9601C24.9176 17.9601 28.7333 20.4408 28.5135 20.068C28.2969 19.6957 25.7401 17.6422 25.7401 17.6422C25.7401 17.6422 26.074 16.9051 26.1049 16.5726C26.1049 16.5726 32.3873 21.6869 34.7637 24.0425C35.3761 24.652 36.1038 25.6047 35.2746 26.304C34.892 26.6251 34.2558 26.6032 33.9051 26.2447C33.692 26.0305 33.5453 25.7433 33.3649 25.5054C33.143 25.2061 32.8496 24.9918 32.5659 24.7566C32.0043 24.2902 23.6726 18.7662 23.2052 18.3343C22.3317 17.5286 22.6332 16.9727 22.6332 16.9727Z" fill="#FFCA28"/>
<path d="M33.8107 33.9155C34.2243 33.9819 34.5088 33.9923 34.7722 33.9735C34.8191 33.9704 34.8634 33.9506 34.897 33.9177C34.9306 33.8848 34.9513 33.8409 34.9553 33.794L35.0662 32.5839C35.0764 32.4601 34.974 32.3569 34.8494 32.3722C34.5543 32.4084 33.9772 32.3992 33.0871 32.0569C32.9783 32.0137 32.8529 32.074 32.8217 32.1879L32.5051 33.3585C32.4801 33.4542 32.5281 33.5551 32.6186 33.5921C33.0804 33.7789 33.4253 33.8535 33.8107 33.9155Z" fill="#9E740B"/>
<path d="M10.9727 30.1047C10.9727 30.1047 10.8833 27.1201 11.6007 24.0754C11.7219 23.5613 12.1135 23.1645 12.0685 25.025C12.0419 26.0911 11.847 29.2647 12.0567 31.301C11.3502 30.5961 10.9727 30.1047 10.9727 30.1047ZM24.1677 14.6637C23.9274 14.6991 23.6892 14.8408 23.5919 15.0663C23.4632 15.367 23.6103 15.7121 23.7841 15.9908C24.1238 16.5372 24.6298 17.0492 25.2695 17.1295C25.4804 17.157 25.7171 17.1243 25.8723 16.9789C25.9818 16.8775 26.0373 16.7321 26.0704 16.5864C26.2995 15.5206 25.2145 14.5105 24.1677 14.6637Z" fill="#616161"/>
</g>
<defs>
<clipPath id="clip0_13_152">
<rect width="40.625" height="40.625" fill="white" transform="matrix(-0.987337 -0.158639 -0.158639 0.987337 46.6177 6.44458)"/>
</clipPath>
</defs>
</svg>
